<svg xmlns="http://www.w3.org/2000/svg" viewBox="0 0 512 512">
  <!-- Background -->
  <rect width="512" height="512" fill="#212529"/>

  <!-- Pixel art fox face (8px grid, 64x64) -->
  <g shape-rendering="crispEdges">
    <!-- Left ear tip -->
    <rect x="136" y="112" width="16" height="8" fill="#E8842C"/>
    <rect x="128" y="120" width="32" height="8" fill="#E8842C"/>
    <rect x="120" y="128" width="48" height="8" fill="#E8842C"/>
    <rect x="112" y="136" width="64" height="8" fill="#E8842C"/>
    <rect x="104" y="144" width="80" height="8" fill="#E8842C"/>

    <!-- Left ear inner -->
    <rect x="96" y="152" width="16" height="8" fill="#E8842C"/>
    <rect x="112" y="152" width="64" height="8" fill="#FFCC80"/>
    <rect x="176" y="152" width="16" height="8" fill="#E8842C"/>
    <rect x="88" y="160" width="24" height="8" fill="#E8842C"/>
    <rect x="112" y="160" width="64" height="8" fill="#FFCC80"/>
    <rect x="176" y="160" width="24" height="8" fill="#E8842C"/>
    <rect x="88" y="168" width="16" height="8" fill="#E8842C"/>
    <rect x="104" y="168" width="64" height="8" fill="#FFCC80"/>
    <rect x="168" y="168" width="40" height="8" fill="#E8842C"/>
    <rect x="80" y="176" width="24" height="8" fill="#E8842C"/>
    <rect x="104" y="176" width="64" height="8" fill="#FFCC80"/>
    <rect x="168" y="176" width="40" height="8" fill="#E8842C"/>
    <rect x="80" y="184" width="16" height="8" fill="#E8842C"/>
    <rect x="96" y="184" width="64" height="8" fill="#FFCC80"/>
    <rect x="72" y="192" width="24" height="8" fill="#E8842C"/>
    <rect x="96" y="192" width="56" height="8" fill="#FFCC80"/>
    <rect x="72" y="200" width="16" height="8" fill="#E8842C"/>
    <rect x="88" y="200" width="56" height="8" fill="#FFCC80"/>

    <!-- Right ear tip -->
    <rect x="360" y="112" width="16" height="8" fill="#E8842C"/>
    <rect x="352" y="120" width="32" height="8" fill="#E8842C"/>
    <rect x="344" y="128" width="48" height="8" fill="#E8842C"/>
    <rect x="336" y="136" width="64" height="8" fill="#E8842C"/>
    <rect x="328" y="144" width="80" height="8" fill="#E8842C"/>

    <!-- Right ear inner -->
    <rect x="320" y="152" width="16" height="8" fill="#E8842C"/>
    <rect x="336" y="152" width="64" height="8" fill="#FFCC80"/>
    <rect x="400" y="152" width="16" height="8" fill="#E8842C"/>
    <rect x="312" y="160" width="24" height="8" fill="#E8842C"/>
    <rect x="336" y="160" width="64" height="8" fill="#FFCC80"/>
    <rect x="400" y="160" width="24" height="8" fill="#E8842C"/>
    <rect x="304" y="168" width="40" height="8" fill="#E8842C"/>
    <rect x="344" y="168" width="64" height="8" fill="#FFCC80"/>
    <rect x="408" y="168" width="16" height="8" fill="#E8842C"/>
    <rect x="304" y="176" width="40" height="8" fill="#E8842C"/>
    <rect x="344" y="176" width="64" height="8" fill="#FFCC80"/>
    <rect x="408" y="176" width="24" height="8" fill="#E8842C"/>
    <rect x="312" y="184" width="40" height="8" fill="#E8842C"/>
    <rect x="352" y="184" width="64" height="8" fill="#FFCC80"/>
    <rect x="416" y="184" width="16" height="8" fill="#E8842C"/>
    <rect x="360" y="192" width="56" height="8" fill="#FFCC80"/>
    <rect x="416" y="192" width="24" height="8" fill="#E8842C"/>
    <rect x="368" y="200" width="56" height="8" fill="#FFCC80"/>
    <rect x="424" y="200" width="16" height="8" fill="#E8842C"/>

    <!-- Ears connect to head -->
    <rect x="160" y="184" width="192" height="8" fill="#E8842C"/>
    <rect x="168" y="176" width="176" height="8" fill="#E8842C"/>
    <rect x="152" y="192" width="208" height="8" fill="#E8842C"/>
    <rect x="144" y="200" width="224" height="8" fill="#E8842C"/>

    <!-- Head -->
    <rect x="80" y="208" width="352" height="16" fill="#E8842C"/>
    <rect x="88" y="224" width="336" height="8" fill="#E8842C"/>
    <rect x="96" y="232" width="320" height="16" fill="#E8842C"/>
    <rect x="104" y="248" width="304" height="16" fill="#E8842C"/>
    <rect x="112" y="264" width="288" height="8" fill="#E8842C"/>

    <!-- Eyes -->
    <rect x="112" y="272" width="56" height="24" fill="#E8842C"/>
    <rect x="168" y="272" width="32" height="24" fill="#1a1a1a"/>
    <rect x="200" y="272" width="112" height="24" fill="#E8842C"/>
    <rect x="312" y="272" width="32" height="24" fill="#1a1a1a"/>
    <rect x="344" y="272" width="56" height="24" fill="#E8842C"/>

    <!-- Below eyes -->
    <rect x="112" y="296" width="288" height="8" fill="#E8842C"/>
    <rect x="120" y="304" width="272" height="8" fill="#E8842C"/>

    <!-- Cheeks -->
    <rect x="120" y="312" width="24" height="8" fill="#E8842C"/>
    <rect x="144" y="312" width="56" height="8" fill="#F5F5F5"/>
    <rect x="200" y="312" width="112" height="8" fill="#E8842C"/>
    <rect x="312" y="312" width="56" height="8" fill="#F5F5F5"/>
    <rect x="368" y="312" width="24" height="8" fill="#E8842C"/>
    <rect x="128" y="320" width="8" height="8" fill="#E8842C"/>
    <rect x="136" y="320" width="80" height="8" fill="#F5F5F5"/>
    <rect x="216" y="320" width="80" height="8" fill="#E8842C"/>
    <rect x="296" y="320" width="80" height="8" fill="#F5F5F5"/>
    <rect x="376" y="320" width="8" height="8" fill="#E8842C"/>

    <!-- Muzzle -->
    <rect x="136" y="328" width="96" height="8" fill="#F5F5F5"/>
    <rect x="232" y="328" width="48" height="8" fill="#E8842C"/>
    <rect x="280" y="328" width="96" height="8" fill="#F5F5F5"/>

    <!-- Nose -->
    <rect x="144" y="336" width="96" height="8" fill="#F5F5F5"/>
    <rect x="240" y="336" width="32" height="8" fill="#1a1a1a"/>
    <rect x="272" y="336" width="96" height="8" fill="#F5F5F5"/>
    <rect x="152" y="344" width="80" height="8" fill="#F5F5F5"/>
    <rect x="232" y="344" width="48" height="8" fill="#1a1a1a"/>
    <rect x="280" y="344" width="80" height="8" fill="#F5F5F5"/>
    <rect x="160" y="352" width="80" height="8" fill="#F5F5F5"/>
    <rect x="240" y="352" width="32" height="8" fill="#1a1a1a"/>
    <rect x="272" y="352" width="80" height="8" fill="#F5F5F5"/>

    <!-- Chin -->
    <rect x="168" y="360" width="176" height="8" fill="#F5F5F5"/>
    <rect x="184" y="368" width="144" height="8" fill="#F5F5F5"/>
    <rect x="200" y="376" width="112" height="8" fill="#F5F5F5"/>
    <rect x="224" y="384" width="64" height="8" fill="#F5F5F5"/>
    <rect x="240" y="392" width="32" height="8" fill="#F5F5F5"/>
  </g>
</svg>
