<svg xmlns="http://www.w3.org/2000/svg" viewBox="0 0 512 512">
  <!-- Background -->
  <circle cx="256" cy="256" r="256" fill="#212529"/>

  <!-- Left ear outer -->
  <path d="M108,72 L178,230 L55,190Z" fill="#E8842C"/>
  <!-- Left ear inner -->
  <path d="M122,120 L170,220 L76,188Z" fill="#FFCC80"/>

  <!-- Right ear outer -->
  <path d="M404,72 L334,230 L457,190Z" fill="#E8842C"/>
  <!-- Right ear inner -->
  <path d="M390,120 L342,220 L436,188Z" fill="#FFCC80"/>

  <!-- Head — tapered snout shape -->
  <path d="M256,148 C370,148 424,220 424,290 C424,360 350,440 256,460 C162,440 88,360 88,290 C88,220 142,148 256,148Z" fill="#E8842C"/>

  <!-- White muzzle — tapered to match snout -->
  <path d="M256,460 C190,440 145,380 145,330 L256,270 L367,330 C367,380 322,440 256,460Z" fill="#F5F5F5"/>

  <!-- Forehead highlight -->
  <ellipse cx="256" cy="215" rx="55" ry="28" fill="#F0A050" opacity="0.5"/>

  <!-- Eyes — slightly narrower for a focused look -->
  <ellipse cx="188" cy="275" rx="26" ry="24" fill="#1a1a1a"/>
  <ellipse cx="324" cy="275" rx="26" ry="24" fill="#1a1a1a"/>
  <!-- Eye shine -->
  <circle cx="197" cy="267" r="7" fill="white" opacity="0.85"/>
  <circle cx="333" cy="267" r="7" fill="white" opacity="0.85"/>

  <!-- Nose -->
  <ellipse cx="256" cy="348" rx="24" ry="17" fill="#1a1a1a"/>
  <!-- Nose shine -->
  <ellipse cx="252" cy="344" rx="8" ry="5" fill="white" opacity="0.2"/>
</svg>
